<?xml version="1.0" encoding="UTF-8"?>
<svg version="1.1" xmlns="http://www.w3.org/2000/svg" width="1742" height="564">
<path d="M0 0 C1.26640823 0.24525264 2.53281647 0.49050528 3.83760071 0.74318981 C6.59910672 1.2780642 9.35990771 1.81639595 12.12020683 2.35746384 C16.60506309 3.23657505 21.09139562 4.10799335 25.57789612 4.97866821 C32.09750071 6.24472462 38.61637095 7.51450325 45.13476562 8.78677368 C55.59007811 10.82731228 66.0469508 12.85978229 76.50415039 14.890625 C78.29347048 15.23814376 80.08279047 15.585663 81.87211037 15.93318272 C84.57762053 16.45863649 87.2831332 16.98407729 89.98865378 17.50947744 C95.48586883 18.57704948 100.98297215 19.64519466 106.47999012 20.71378094 C131.30553112 25.53961129 156.13533487 30.34272482 180.97094727 35.11645508 C181.75675926 35.26750017 182.54257126 35.41854527 183.35219574 35.57416749 C192.85847687 37.40129899 202.3650047 39.22714504 211.87161469 41.05256456 C226.28591779 43.82041964 240.69969844 46.59099485 255.11346817 49.36162591 C256.74179058 49.67462163 258.37011445 49.98760976 259.99843979 50.30059028 C300.54473733 58.0940028 341.08675066 65.90961122 381.62753427 73.73165101 C388.08479392 74.97750061 394.54213494 76.22292782 400.99951172 77.46817017 C403.67056133 77.9832947 406.34160813 78.49843375 409.01265264 79.01358473 C410.76463102 79.35147352 412.51661321 79.68934257 414.26859927 80.02719152 C423.46820563 81.80130875 432.66736904 83.57765582 441.86514282 85.36125183 C444.23315837 85.82034786 446.60117803 86.27942269 448.96920276 86.73847139 C450.50949783 87.03707345 452.04978258 87.33572879 453.59005666 87.63443911 C462.79545219 89.41904327 472.00441719 91.1825875 481.21979237 92.91492844 C486.07823851 93.82957512 490.93469485 94.75449442 495.79086113 95.68115997 C497.97705155 96.0953461 500.16422559 96.50438011 502.35243416 96.90776825 C505.28056336 97.44773007 508.20486766 98.00502744 511.12890625 98.56665039 C512.38701394 98.79104923 512.38701394 98.79104923 513.67053795 99.01998138 C518.39807601 99.95000358 521.50073058 101.06905159 524.99829102 104.60864258 C525.66235352 106.82739258 525.66235352 106.82739258 525.62329102 109.10864258 C525.63618164 109.86145508 525.64907227 110.61426758 525.66235352 111.38989258 C524.65334696 114.76116153 522.91311753 115.62225923 519.99829102 117.60864258 C516.59063752 119.17509127 513.08986059 120.45471026 509.56860352 121.74145508 C508.52788696 122.13045486 507.48717041 122.51945465 506.41491699 122.92024231 C504.1656789 123.75980642 501.9148618 124.59514983 499.66265869 125.42672729 C494.84495895 127.20566805 490.03491536 129.0048999 485.22421265 130.80265808 C482.75002816 131.72692898 480.27543506 132.65010676 477.80044556 133.57221985 C466.38139442 137.82802771 454.99828789 142.1742266 443.62329102 146.54614258 C440.74292326 147.65161493 437.86238166 148.75663339 434.98182678 149.86161804 C433.02762688 150.61126033 431.07347466 151.3610269 429.11936951 152.11091614 C416.97972839 156.76877068 404.83301795 161.40811433 392.68579102 166.04614258 C391.53201965 166.48671997 390.37824829 166.92729736 389.18951416 167.38122559 C371.59391246 174.09950711 353.98954427 180.79449454 336.38128662 187.47952271 C321.51542485 193.12410119 306.65877999 198.79221935 291.81079102 204.48364258 C290.85790192 204.84889038 289.90501282 205.21413818 288.92324829 205.5904541 C287.96679413 205.95707153 287.01033997 206.32368896 286.02490234 206.70141602 C270.91561585 212.49282354 255.80234805 218.2737377 240.68579102 224.04614258 C239.53229156 224.48662933 238.37879211 224.92711609 237.19033813 225.38095093 C219.59445886 232.09931608 201.98981457 238.79439192 184.38128662 245.47952271 C167.59984363 251.85144877 150.83221162 258.25878926 134.07104492 264.68383789 C123.33128524 268.80057621 112.59003931 272.91337832 101.84594727 277.01879883 C100.0510511 277.70471855 100.0510511 277.70471855 98.21989441 278.40449524 C92.24910663 280.68561628 86.27734445 282.96413387 80.30371094 285.23779297 C70.64969042 288.91346492 60.99874016 292.59214421 51.38891602 296.38208008 C50.02661507 296.91513927 48.66415622 297.44779511 47.30151367 297.97998047 C44.96288752 298.89627611 42.62864364 299.82389803 40.30053711 300.76660156 C34.59552815 302.98953043 29.13515505 305.08698112 22.99829102 303.60864258 C19.59416646 301.93945433 16.68925494 299.7839625 13.68579102 297.48364258 C11.91927341 296.18881292 10.15233444 294.89455795 8.38500977 293.60083008 C7.49088379 292.93535156 6.59675781 292.26987305 5.67553711 291.58422852 C1.50779274 288.50877827 -2.74756718 285.56275623 -7.00170898 282.60864258 C-8.66885789 281.44266513 -10.33552353 280.27599639 -12.00170898 279.10864258 C-13.23920898 278.24239258 -13.23920898 278.24239258 -14.50170898 277.35864258 C-50.33504232 252.27530924 -86.16837565 227.19197591 -122.00170898 202.10864258 C-122.82799805 201.53041748 -123.65428711 200.95219238 -124.50561523 200.35644531 C-126.15993536 199.19806525 -127.81358975 198.0387338 -129.46655273 196.87841797 C-133.81693466 193.82653571 -138.18015426 190.79558858 -142.56420898 187.79223633 C-143.92932617 186.85154297 -143.92932617 186.85154297 -145.32202148 185.8918457 C-147.06259093 184.6929841 -148.80717754 183.49992651 -150.55639648 182.3137207 C-158.58456995 176.76638445 -158.58456995 176.76638445 -161.00170898 172.60864258 C-161.67461549 168.73557763 -161.30862904 167.11717378 -159.27124023 163.74145508 C-158.05500977 162.25258789 -158.05500977 162.25258789 -156.81420898 160.73364258 C-156.14578979 159.90171387 -156.14578979 159.90171387 -155.46386719 159.05297852 C-153.9906437 157.22617128 -152.49728466 155.41717955 -151.00170898 153.60864258 C-149.43523919 151.69053657 -147.87223141 149.76964387 -146.30932617 147.84863281 C-145.21800046 146.50815725 -144.12486347 145.16915452 -143.0300293 143.83154297 C-139.10425236 139.02035129 -135.31013373 134.12320842 -131.56420898 129.17114258 C-126.61579386 122.63304629 -121.4788411 116.28436782 -116.23242188 109.98388672 C-112.1964007 105.11571929 -108.31355411 100.15379993 -104.50170898 95.10864258 C-99.52684271 88.52631341 -94.36880731 82.12652056 -89.09814453 75.77929688 C-83.60293754 69.15482216 -78.28847989 62.39976327 -73.00170898 55.60864258 C-67.21880748 48.19472075 -61.38696963 40.82876008 -55.43920898 33.54614258 C-51.51725846 28.74192551 -47.64442326 23.90989683 -43.87670898 18.98364258 C-43.08780273 17.95368164 -42.29889648 16.9237207 -41.48608398 15.86254883 C-40.17777179 14.15106934 -38.87205671 12.43773329 -37.57006836 10.72143555 C-36.09611507 8.7824046 -34.61220217 6.8513407 -33.12670898 4.92114258 C-32.67408691 4.32027832 -32.22146484 3.71941406 -31.75512695 3.1003418 C-23.64925785 -7.37768161 -11.44750214 -2.2585098 0 0 Z " fill="#000000" transform="translate(161.001708984375,3.391357421875)"/>
<path d="M0 0 C2.87277623 1.75860002 5.6205644 3.62921265 8.36669922 5.57958984 C10.4016013 6.96668155 12.43675941 8.3533977 14.47216797 9.73974609 C15.46394043 10.42697754 16.45571289 11.11420898 17.47753906 11.82226562 C21.32611595 14.47019821 25.24441487 16.99992693 29.17919922 19.51708984 C30.54158425 20.39666986 31.90356746 21.27687257 33.26513672 22.15771484 C33.92868164 22.58632813 34.59222656 23.01494141 35.27587891 23.45654297 C38.78652718 25.72485784 42.29524035 27.99616282 45.80419922 30.26708984 C47.22085716 31.18377 48.63752381 32.10043668 50.05419922 33.01708984 C81.22086589 53.18375651 112.38753255 73.35042318 143.55419922 93.51708984 C144.60692017 94.19819824 144.60692017 94.19819824 145.6809082 94.89306641 C147.09203561 95.80623475 148.50300669 96.71964471 149.91381836 97.63330078 C153.53896619 99.98053688 157.16705583 102.3230163 160.80029297 104.65771484 C182.83653985 118.83177111 182.83653985 118.83177111 184.30419922 121.76708984 C185.21812436 128.34168308 185.21812436 128.34168308 183.00683594 131.79052734 C181.16676593 133.88341956 179.24682882 135.83188464 177.24169922 137.76708984 C175.91617137 139.09912175 174.59194878 140.43245383 173.26904297 141.76708984 C172.6082373 142.42451172 171.94743164 143.08193359 171.26660156 143.75927734 C168.70784159 146.37724724 166.31723648 149.12034962 163.92749023 151.89208984 C161.60868795 154.57044772 159.20832196 157.16498052 156.80419922 159.76708984 C153.76450926 163.06661761 150.74261862 166.37660591 147.80419922 169.76708984 C144.39675003 173.69876198 140.87290249 177.52070228 137.34887695 181.34741211 C134.81679805 184.10182412 132.31384653 186.87451483 129.86669922 189.70458984 C126.24275278 193.88740995 122.47164176 197.92980791 118.70898438 201.98730469 C115.45804409 205.49921728 112.27435609 209.05710402 109.14404297 212.67724609 C106.26435017 215.94823473 103.30065669 219.14212076 100.34863281 222.34765625 C97.81665098 225.10200081 95.3137712 227.87460195 92.86669922 230.70458984 C89.24275278 234.88740995 85.47164176 238.92980791 81.70898438 242.98730469 C78.45804409 246.49921728 75.27435609 250.05710402 72.14404297 253.67724609 C69.73749696 256.41079623 67.27113219 259.08819686 64.80419922 261.76708984 C61.72601799 265.11081931 58.66336447 268.46376976 55.67919922 271.89208984 C54.86708984 272.81054688 54.86708984 272.81054688 54.03857422 273.74755859 C52.72077873 275.28201865 51.4470257 276.85443033 50.19482422 278.44287109 C49.44716797 279.35423828 48.69951172 280.26560547 47.92919922 281.20458984 C47.26146484 282.04892578 46.59373047 282.89326172 45.90576172 283.76318359 C41.35741897 287.26663679 36.39371463 287.00026142 30.89425468 286.38656998 C26.68245408 285.72150993 22.49380092 284.97074484 18.30200195 284.19140625 C16.67417318 283.89845025 15.04614173 283.60661859 13.41792774 283.31581116 C8.96213049 282.51669699 4.50932912 281.70188171 0.05685711 280.88447237 C-4.73411301 280.00784161 -9.52775322 279.14605147 -14.32110596 278.28256226 C-22.61167121 276.78707124 -30.90056044 275.28257522 -39.18838501 273.77197266 C-51.26666065 271.57062764 -63.34752159 269.3837552 -75.42917573 267.20103693 C-81.05263837 266.18507564 -86.67601125 265.16861796 -92.29936218 264.15203857 C-93.42151377 263.94918078 -94.54366535 263.74632299 -95.69982153 263.53731799 C-103.73771978 262.08395848 -111.77514011 260.62797473 -119.81233215 259.17071533 C-149.63779297 253.76318305 -179.46825706 248.38447897 -209.30517578 243.04052734 C-210.27426077 242.86695363 -211.24334577 242.69337992 -212.24179697 242.51454639 C-220.9534356 240.95426082 -229.66514478 239.39436944 -238.37693977 237.83495712 C-251.6549691 235.45805056 -264.93220575 233.0767533 -278.20898438 230.69287109 C-280.08809541 230.35549732 -281.96720701 230.01812676 -283.8463192 229.68075943 C-284.77422174 229.51416691 -285.70212427 229.34757438 -286.65814507 229.1759336 C-287.58452684 229.0096144 -288.51090861 228.84329521 -289.46536255 228.67193604 C-290.39034227 228.50586798 -291.315322 228.33979992 -292.26833141 228.1686995 C-295.05925665 227.66763069 -297.8501842 227.16657475 -300.64111328 226.66552734 C-301.5561593 226.50125087 -302.47120532 226.33697439 -303.41398001 226.16771984 C-326.53833654 222.01646405 -349.66482426 217.8774612 -372.79508305 213.75921249 C-387.11958409 211.20877008 -401.44301706 208.65239461 -415.76564693 206.091465 C-424.90173348 204.45825716 -434.03888421 202.83127649 -443.17756724 201.21265948 C-449.28824072 200.1298269 -455.39759692 199.03977371 -461.505934 197.94383848 C-464.99829448 197.31750396 -468.49117036 196.69454669 -471.98572922 196.08058548 C-475.75199877 195.41883825 -479.5153594 194.74147015 -483.27856445 194.0625 C-484.37460401 193.87257477 -485.47064356 193.68264954 -486.59989643 193.48696899 C-495.97804183 191.77027527 -495.97804183 191.77027527 -499.69580078 188.76708984 C-502.04129752 185.24884473 -502.27571481 183.9093329 -501.69580078 179.76708984 C-497.43157123 174.01934625 -491.44151717 172.47107632 -484.86767578 170.20458984 C-483.04011053 169.55426083 -481.21254698 168.90392703 -479.38504887 168.25340939 C-477.42978549 167.56042438 -475.47219184 166.87444605 -473.51376343 166.19046021 C-469.38281466 164.747349 -465.25899849 163.28460745 -461.13647461 161.81762695 C-459.72633442 161.3159615 -458.31619342 160.81429831 -456.90605164 160.31263733 C-456.20352453 160.06266558 -455.50099743 159.81269382 -454.77718163 159.55514717 C-452.62458687 158.78994741 -450.47134586 158.02659138 -448.31794739 157.26365662 C-435.78395183 152.81982234 -423.30447612 148.2358195 -410.83630371 143.61035156 C-388.82667661 135.44670722 -366.76046408 127.45161761 -344.6600914 119.53816605 C-325.13487273 112.54629571 -305.64592889 105.46600423 -286.19580078 98.26708984 C-265.3933794 90.56766237 -244.54238974 83.01532447 -223.65948486 75.53796387 C-204.13445109 68.54621139 -184.64572785 61.46592982 -165.19580078 54.26708984 C-144.40243649 46.5710146 -123.5607613 39.02123937 -102.68671036 31.5477829 C-76.09461772 22.02654074 -49.57617758 12.31357571 -23.092453 2.49502563 C-22.15549088 2.14797577 -21.21852875 1.8009259 -20.25317383 1.44335938 C-19.03382393 0.99115524 -19.03382393 0.99115524 -17.7898407 0.52981567 C-11.70293974 -1.687256 -6.10553638 -2.7923346 0 0 Z " fill="#000000" transform="translate(501.69580078125,277.23291015625)"/>
<path d="M0 0 C1.18928101 -0.00101212 1.18928101 -0.00101212 2.40258789 -0.00204468 C46.62265855 0.05743872 88.14644034 11.42275827 120.8125 42.25 C121.54984375 42.92289063 122.2871875 43.59578125 123.046875 44.2890625 C147.44916261 67.39335608 161.2341444 103.0852691 163.8125 136.25 C161.89402603 138.16847397 158.43392413 137.59735404 155.88110352 137.73071289 C155.15574905 137.7698732 154.43039459 137.80903351 153.68305969 137.84938049 C151.26939574 137.97844867 148.85543734 138.10066245 146.44140625 138.22265625 C144.7628353 138.31057102 143.08428222 138.39882746 141.40574646 138.4874115 C137.87586772 138.67268994 134.34584249 138.85475579 130.81567383 139.03442383 C126.3133489 139.26368784 121.81138645 139.49931108 117.30951023 139.73720646 C113.83583643 139.92029892 110.36202623 140.10068478 106.88816643 140.28021049 C105.2301185 140.36607496 103.57210395 140.4525868 101.91412544 140.53978157 C93.5417856 140.97808586 85.19981827 141.36282447 76.8125 141.25 C76.65394531 140.48558594 76.49539063 139.72117188 76.33203125 138.93359375 C71.51479255 116.81687903 63.46213178 97.12826109 43.8125 84.25 C23.53796999 72.10868694 -1.57547274 70.40866038 -24.28027344 75.74511719 C-36.66502448 79.02362015 -47.79722851 85.65566745 -55.1875 96.25 C-61.5066119 108.57462022 -62.90230155 120.07213732 -59.15234375 133.46484375 C-55.41590045 144.25060924 -47.18295278 151.07653451 -37.25 156.25 C-17.54778348 165.81348466 4.27357156 169.80593127 25.50619507 174.4644165 C66.74923521 183.52406632 108.89805985 195.22456151 140.8125 224.25 C141.82376953 225.13751953 141.82376953 225.13751953 142.85546875 226.04296875 C160.65214152 242.53645267 168.75253896 267.88042839 169.921875 291.45507812 C170.73976401 314.98983446 166.42453707 336.69502979 154.8125 357.25 C154.25691406 358.24644531 153.70132812 359.24289062 153.12890625 360.26953125 C136.69618946 387.81502055 106.15572777 405.27592028 75.8125 413.25 C21.38142638 426.44541179 -41.86257391 424.37880489 -90.90234375 395.05859375 C-123.11018001 375.24271816 -144.32377135 345.06348855 -153.3984375 308.46875 C-155.75239847 298.40797145 -156.90260242 288.57753713 -157.1875 278.25 C-153.00374361 277.48266909 -148.93355536 277.05584783 -144.68579102 276.86108398 C-142.77703941 276.7711039 -142.77703941 276.7711039 -140.82972717 276.67930603 C-139.45029469 276.61805868 -138.07085416 276.55699265 -136.69140625 276.49609375 C-135.25616982 276.43048047 -133.82094353 276.364645 -132.38572693 276.29859924 C-129.37745057 276.16099378 -126.36907213 276.02597992 -123.3605957 275.89282227 C-119.54836432 275.72390103 -115.73644976 275.54877215 -111.92459202 275.37164211 C-108.95685395 275.23442885 -105.98897206 275.10055161 -103.02103996 274.9676075 C-101.61831152 274.90440762 -100.21562585 274.84024924 -98.81299019 274.77502251 C-89.26020487 274.33330262 -79.74796745 274.17352139 -70.1875 274.25 C-69.16602495 277.76981309 -68.18628951 281.25550114 -67.3984375 284.8359375 C-64.14001155 299.60543828 -58.57564124 313.0333567 -48.1875 324.25 C-47.67058594 324.86875 -47.15367187 325.4875 -46.62109375 326.125 C-33.89688821 340.41182727 -12.45156516 345.71236029 5.8125 347.25 C27.61543422 348.51063895 52.63244315 346.46942328 69.80859375 331.51171875 C78.26527148 322.72768575 81.17307877 311.15559975 81.02734375 299.25390625 C80.21817898 287.94031162 76.33931296 278.78532308 67.8125 271.25 C67.3071875 270.80269531 66.801875 270.35539062 66.28125 269.89453125 C43.70676985 251.42900253 10.60433317 246.39662095 -17.10205078 239.82904053 C-110.62200691 217.65111469 -110.62200691 217.65111469 -135.33984375 179.96875 C-151.04719453 154.1261082 -153.78603433 122.61110251 -147.33984375 93.41015625 C-143.04538421 76.28447751 -135.77867208 60.64174251 -124.1875 47.25 C-123.59582031 46.51394531 -123.00414062 45.77789062 -122.39453125 45.01953125 C-98.57679583 16.32652377 -58.76367158 4.42060303 -23.06640625 0.65625 C-15.39142814 0.02188679 -7.69625511 0.0059131 0 0 Z " fill="#000000" transform="translate(904.1875,87.75)"/>
<path d="M0 0 C0.82757812 0.69609375 1.65515625 1.3921875 2.5078125 2.109375 C30.87026446 26.47085411 47.51303804 64.90081876 50.71875 101.78125 C53.70211566 148.29115573 46.91871114 196.1022412 15.75390625 232.6328125 C13.54702344 235.13420133 11.28948375 237.57418972 9 240 C8.31550781 240.74894531 7.63101562 241.49789063 6.92578125 242.26953125 C-15.78938139 266.24431474 -48.95982068 277.95910044 -81 282 C-82.04414062 282.13277344 -83.08828125 282.26554687 -84.1640625 282.40234375 C-87.11372258 282.70561866 -90.03687709 282.88176172 -93 283 C-94.00426025 283.04084717 -94.00426025 283.04084717 -95.02880859 283.08251953 C-116.29998123 283.82210327 -137.71120076 281.56211506 -158 275 C-159.04655762 274.66162109 -159.04655762 274.66162109 -160.11425781 274.31640625 C-180.25778781 267.62395236 -197.68770073 256.66015705 -213 242 C-213.74636719 241.31679688 -214.49273438 240.63359375 -215.26171875 239.9296875 C-242.19422745 214.45426042 -255.86111156 173.78939265 -257.12597656 137.37304688 C-258.11686978 93.03589725 -250.92455394 49.59656928 -221 15 C-220.32710937 14.19433594 -219.65421875 13.38867188 -218.9609375 12.55859375 C-193.50451103 -17.01714536 -155.76546767 -31.38109752 -117.60986328 -34.50170898 C-76.00653245 -37.32463047 -31.87275649 -28.39753382 0 0 Z M-146.9699707 49.15625 C-168.68292508 73.41636607 -170.14267783 108.20094157 -169 139 C-167.35418214 162.15190765 -160.47219494 186.79170491 -143 203 C-129.87703259 213.88869412 -113.88060482 218.1134439 -97 217 C-84.16998173 215.07195306 -73.77530662 211.62213978 -64 203 C-62.98099609 202.12214844 -62.98099609 202.12214844 -61.94140625 201.2265625 C-43.06202531 183.78245614 -38.47266435 156.57359649 -37.11376953 132.13671875 C-36.09293476 103.99147153 -39.29806668 72.81674265 -58.375 50.6875 C-70.15249194 38.27338688 -83.84645883 31.80843496 -101.00439453 30.89306641 C-118.35339422 30.63663583 -134.8879535 36.57056458 -146.9699707 49.15625 Z " fill="#000000" transform="translate(1353,223)"/>
<path d="M0 0 C28.05 0 56.1 0 85 0 C85 23.43 85 46.86 85 71 C111.4 71 137.8 71 165 71 C165 92.12 165 113.24 165 135 C138.6 135 112.2 135 85 135 C85.09071467 160.42976949 85.09071467 160.42976949 85.20898438 185.859375 C85.26336336 196.23728827 85.31478081 206.61515326 85.34643555 216.99316406 C85.36950893 224.5531801 85.40300999 232.1130682 85.44870156 239.67298257 C85.47250869 243.67079738 85.49131895 247.66848647 85.49761391 251.66637039 C85.50372202 255.44048823 85.52392422 259.21428493 85.55427551 262.98828316 C85.56706298 265.01089345 85.56550158 267.03357914 85.5632782 269.05622864 C85.68099154 280.69127051 86.26230508 294.31772386 95 303 C104.69931317 310.01946728 117.12384905 310.27951683 128.671875 310.4140625 C129.60338379 310.43170654 130.53489258 310.44935059 131.49462891 310.4675293 C134.9129233 310.5297156 138.33148395 310.57650552 141.75 310.625 C149.4225 310.74875 157.095 310.8725 165 311 C165 332.12 165 353.24 165 375 C143.84037481 375.12032643 143.84037481 375.12032643 134.6953125 375.14648438 C128.49894327 375.16429324 122.30270925 375.18516647 116.10644531 375.22631836 C111.10080248 375.25934795 106.09530501 375.27694304 101.08956146 375.28463173 C99.1969652 375.2900982 97.30437525 375.30076767 95.41184235 375.31719017 C68.68956259 375.53946805 41.44889237 372.53520744 21.2421875 353.296875 C6.41000542 338.10293238 -0.13597002 316.79192245 -0.12025452 295.7802887 C-0.12110894 295.08827093 -0.12196337 294.39625316 -0.12284368 293.68326515 C-0.12448012 291.38329883 -0.11900744 289.08340677 -0.11352539 286.78344727 C-0.1132431 285.1272634 -0.11340208 283.47107942 -0.1139679 281.81489563 C-0.11425422 277.33197102 -0.10838413 272.84907329 -0.10139394 268.36615491 C-0.09513296 263.67630987 -0.09455443 258.98646418 -0.09336853 254.2966156 C-0.09026331 245.42160139 -0.08206082 236.54659953 -0.07201904 227.67159075 C-0.06083279 217.56521368 -0.05534112 207.45883602 -0.05032361 197.3524543 C-0.03987753 176.56829445 -0.0215421 155.78415152 0 135 C-16.17 135 -32.34 135 -49 135 C-49 113.88 -49 92.76 -49 71 C-32.83 71 -16.66 71 0 71 C0 47.57 0 24.14 0 0 Z " fill="#000000" transform="translate(1577,124)"/>
<path d="M0 0 C28.38 0 56.76 0 86 0 C86 100.32 86 200.64 86 304 C57.62 304 29.24 304 0 304 C0 203.68 0 103.36 0 0 Z " fill="#000000" transform="translate(1427,195)"/>
<path d="M0 0 C29.04 0 58.08 0 88 0 C88 22.77 88 45.54 88 69 C58.96 69 29.92 69 0 69 C0 46.23 0 23.46 0 0 Z " fill="#000000" transform="translate(1426,90)"/>
</svg>
